<svg xmlns="http://www.w3.org/2000/svg" width="1024" height="1024" viewBox="0 0 1024 1024">
<g>
<path d="M 539.76 628.25 L 539.50 695.50 L 510.25 695.77 L 481.00 696.03 L 481.00 567.85 L 486.48 562.85 C502.57,548.14 503.28,523.52 488.06,508.30 C485.83,506.06 484.00,503.73 484.00,503.12 C484.00,502.32 492.04,502.00 512.00,502.00 L 540.00 502.00 L 540.00 509.94 L 526.25 510.22 C512.61,510.50 512.50,510.52 512.16,512.89 C511.98,514.20 512.43,515.67 513.16,516.15 C513.90,516.63 523.37,516.72 534.22,516.36 C555.30,515.65 557.00,515.96 557.00,520.42 C557.00,524.76 555.73,525.00 533.23,525.00 L 511.87 525.00 L 512.18 527.75 L 512.50 530.50 L 526.50 530.79 C543.01,531.14 566.64,529.58 570.31,527.90 C571.73,527.26 573.37,525.37 573.95,523.71 C575.41,519.51 575.35,471.87 573.88,468.63 C572.43,465.45 571.51,465.29 559.00,466.10 C553.22,466.48 539.22,466.84 527.89,466.89 L 507.28 467.00 L 506.71 460.77 C505.89,451.66 504.38,450.70 491.52,451.15 L 481.50 451.50 L 481.24 403.25 L 480.98 355.00 L 371.96 355.00 L 372.50 309.06 L 650.00 308.06 L 650.00 355.00 L 540.00 355.00 L 540.00 437.00 L 510.00 437.00 L 510.00 444.23 L 537.25 443.72 C566.51,443.17 573.43,442.40 611.00,435.50 C644.93,429.28 654.87,428.00 674.79,427.33 L 694.07 426.68 L 693.79 437.39 L 693.50 448.10 L 678.15 448.49 C665.39,448.80 662.48,449.16 660.90,450.59 C659.12,452.20 659.00,454.03 659.00,479.00 C659.00,480.96 659.00,482.80 658.99,484.52 C658.97,500.30 658.96,506.12 661.66,507.96 C663.24,509.04 665.74,508.75 669.71,508.29 C670.45,508.21 671.24,508.11 672.09,508.03 C677.26,507.48 684.33,507.03 687.78,507.02 L 694.07 507.00 L 693.50 527.50 L 681.65 528.20 C667.00,529.05 653.22,531.62 628.00,538.16 C593.43,547.13 585.69,548.94 575.00,550.55 C563.24,552.31 538.21,553.91 521.36,553.96 L 510.21 554.00 L 510.34 556.75 C510.42,558.26 510.93,559.83 511.49,560.23 C512.04,560.64 518.69,560.98 526.26,560.98 L 540.01 561.00 ZM 583.48 522.60 C585.70,525.99 588.29,525.76 610.90,520.09 C621.68,517.38 633.20,514.65 636.50,514.02 C642.71,512.83 646.43,512.24 648.67,510.10 C652.01,506.89 652.00,500.19 651.99,482.72 C651.99,481.93 651.99,481.12 651.99,480.28 C651.97,454.55 651.48,451.73 646.98,451.22 C642.49,450.70 586.02,462.55 584.18,464.39 C582.70,465.86 582.46,469.34 582.20,493.14 C581.95,516.39 582.13,520.55 583.48,522.60 ZM 472.00 564.04 C459.82,567.61 450.50,565.29 440.87,556.29 C425.59,541.99 430.41,515.60 449.95,506.62 C456.34,503.69 468.68,503.70 475.09,506.64 C485.60,511.46 492.40,522.43 492.43,534.58 C492.44,540.68 491.97,542.62 488.97,548.58 C485.20,556.10 478.60,562.11 472.00,564.04 ZM 427.01 523.50 C426.32,525.70 425.41,527.88 424.98,528.35 C424.27,529.12 417.25,520.01 385.77,477.53 L 376.16 464.56 L 381.33 463.24 C384.17,462.51 387.96,460.92 389.75,459.71 C393.18,457.38 399.00,450.00 399.00,447.98 C399.00,445.80 401.83,447.81 419.73,462.75 C429.50,470.90 442.56,481.76 448.75,486.88 C454.94,491.99 459.79,496.53 459.53,496.96 C459.26,497.39 457.14,498.04 454.81,498.41 C442.33,500.41 431.07,510.57 427.01,523.50 ZM 381.78 457.45 C368.59,462.95 354.94,451.82 356.20,436.59 C356.72,430.30 359.52,425.55 364.84,421.91 C367.80,419.89 369.57,419.50 375.93,419.50 C385.26,419.50 389.04,421.75 392.61,429.40 C397.91,440.80 393.35,452.62 381.78,457.45 ZM 455.46 549.20 C461.43,552.95 470.32,550.47 475.44,543.61 C478.34,539.72 478.33,530.26 475.41,526.32 C468.66,517.21 456.78,516.53 449.79,524.84 C443.30,532.55 445.75,543.09 455.46,549.20 ZM 338.04 450.49 C331.27,451.87 325.64,453.00 325.53,453.00 C324.69,453.00 324.00,451.24 324.00,449.08 C323.99,447.66 323.07,444.99 321.94,443.14 C320.81,441.29 320.03,439.66 320.20,439.51 C320.87,438.93 337.93,431.65 343.95,429.37 C351.67,426.46 353.43,426.75 351.93,430.69 C351.35,432.20 350.98,436.50 351.10,440.23 C351.22,443.96 351.10,447.23 350.83,447.50 C350.57,447.77 344.81,449.11 338.04,450.49 ZM 408.07 420.88 C403.44,424.24 399.37,427.00 399.03,427.00 C398.70,427.00 396.77,425.02 394.74,422.60 C392.72,420.18 389.26,417.36 387.06,416.35 C384.85,415.33 383.05,414.27 383.04,414.00 C383.04,413.73 388.32,411.28 394.77,408.57 C401.22,405.86 408.39,402.83 410.70,401.82 C415.34,399.81 416.09,399.65 415.80,400.75 C415.42,402.20 417.25,406.52 419.12,408.57 C420.98,410.61 420.97,410.67 418.76,412.70 C417.52,413.83 412.71,417.51 408.07,420.88 ZM 540.12 473.00 L 539.50 480.50 L 481.00 481.03 L 481.00 473.00 ZM 518.39 494.70 C517.07,495.67 511.13,496.00 494.88,496.00 C476.45,496.00 472.90,495.76 471.57,494.43 C469.67,492.53 469.59,490.95 471.25,488.67 C472.38,487.13 474.79,486.99 496.00,487.23 L 519.50 487.50 L 519.84 490.45 C520.06,492.41 519.58,493.84 518.39,494.70 ZM 371.38 448.56 C375.41,450.32 376.50,450.31 379.99,448.51 C386.98,444.89 388.18,436.98 382.60,431.40 C378.77,427.57 374.86,426.99 369.98,429.51 C366.31,431.41 365.00,433.83 365.00,438.71 C365.00,443.36 367.19,446.74 371.38,448.56 ZM 313.47 461.58 C309.39,463.28 309.33,463.28 305.38,461.56 C298.68,458.65 296.86,450.70 301.59,445.08 C303.88,442.35 304.78,442.00 309.50,442.00 C314.22,442.00 315.12,442.35 317.41,445.08 C321.95,450.48 319.95,458.87 313.47,461.58 ZM 555.17 494.35 C553.69,495.69 551.18,495.99 541.92,495.97 C529.65,495.94 527.00,495.17 527.00,491.65 C527.00,487.52 528.67,487.00 542.00,487.00 C554.88,487.00 557.00,487.57 557.00,491.05 C557.00,491.95 556.18,493.43 555.17,494.35 ZM 498.43 465.43 C497.18,466.67 494.49,467.00 485.50,467.00 C473.59,467.00 471.00,466.13 471.00,462.13 C471.00,458.56 473.05,458.00 486.09,458.00 C496.74,458.00 498.88,458.25 499.39,459.58 C500.37,462.13 500.10,463.75 498.43,465.43 ZM 467.08 540.08 C463.79,543.37 462.66,543.55 458.76,541.43 C456.10,539.99 454.28,536.04 454.88,533.00 C455.96,527.55 464.31,526.04 467.93,530.63 C470.75,534.22 470.53,536.62 467.08,540.08 ZM 459.33 420.01 C458.87,420.43 457.50,421.08 456.27,421.45 C454.47,421.99 453.66,421.48 452.03,418.81 C450.92,416.99 450.01,415.18 450.00,414.78 C450.00,414.38 447.53,412.89 444.52,411.47 C439.07,408.89 439.05,408.86 440.63,406.44 C441.37,405.31 441.82,404.61 442.45,404.33 C443.48,403.88 445.01,404.56 449.11,406.37 L 449.35 406.47 C454.16,408.60 455.30,409.66 457.55,414.10 C458.98,416.93 459.78,419.59 459.33,420.01 ZM 425.66 402.49 C427.17,403.59 427.18,403.91 425.78,405.91 L 424.23 408.11 L 422.12 405.42 C420.95,403.94 420.03,401.55 420.07,400.12 C420.13,397.84 420.24,397.75 420.91,399.46 C421.60,401.23 421.74,401.16 422.37,398.67 C422.78,397.03 423.50,396.19 424.16,396.60 C424.82,397.01 425.06,396.72 424.75,395.89 C424.48,395.13 423.64,394.65 422.90,394.82 C422.06,395.03 422.27,394.36 423.48,393.03 C424.99,391.35 426.34,390.97 429.91,391.20 C433.81,391.46 434.76,391.98 436.79,395.00 C438.50,397.54 438.98,399.31 438.56,401.45 C437.41,407.19 433.52,407.31 433.47,401.61 C433.44,397.69 431.95,396.04 428.45,396.02 C424.37,395.98 422.55,400.22 425.66,402.49 ZM 462.01 397.98 C461.42,399.09 460.34,400.00 459.61,400.00 C457.07,400.00 451.66,395.51 451.50,393.27 C451.37,391.49 451.62,391.27 452.69,392.16 C453.44,392.78 454.27,393.06 454.55,392.79 C454.82,392.51 454.39,391.74 453.59,391.07 C452.44,390.12 451.63,390.13 449.82,391.10 C446.09,393.09 441.76,392.81 438.76,390.38 L 436.03 388.15 L 440.53 386.43 C444.82,384.80 445.23,384.80 449.02,386.51 C451.21,387.50 453.00,388.66 453.00,389.11 C453.00,389.55 454.97,390.78 457.37,391.84 C462.58,394.15 463.45,395.29 462.01,397.98 ZM 730.80 429.75 L 730.50 435.50 L 725.46 435.79 C722.69,435.96 720.10,435.77 719.71,435.38 C719.32,434.99 719.00,432.27 719.00,429.33 L 719.00 424.00 L 731.10 424.00 ZM 741.80 480.75 L 741.50 486.50 L 736.46 486.79 C733.69,486.96 731.10,486.77 730.71,486.38 C730.32,485.99 730.00,483.27 730.00,480.33 L 730.00 475.00 L 742.10 475.00 ZM 745.16 500.00 L 744.82 506.00 L 734.00 506.00 L 734.00 494.00 L 739.75 494.00 L 745.50 494.00 ZM 518.71 547.38 C519.10,547.77 521.69,547.96 524.46,547.79 L 529.50 547.50 L 529.81 542.60 C530.18,536.79 529.37,536.04 522.75,536.02 L 518.00 536.00 L 518.00 541.33 C518.00,544.27 518.32,546.99 518.71,547.38 ZM 711.80 446.75 L 711.50 452.50 L 706.25 452.80 C701.04,453.10 701.00,453.08 701.00,450.18 C701.00,448.57 700.72,445.84 700.38,444.12 L 699.75 441.00 L 712.10 441.00 ZM 718.00 475.00 L 718.00 487.00 L 713.17 487.00 C710.51,487.00 708.03,486.70 707.67,486.33 C707.30,485.97 707.00,483.27 707.00,480.33 L 707.00 475.00 ZM 725.00 457.00 L 725.00 468.00 L 719.67 468.00 C716.73,468.00 714.03,467.70 713.67,467.33 C713.30,466.97 713.00,464.49 713.00,461.83 L 713.00 457.00 ZM 721.80 518.75 L 721.50 524.50 L 716.38 524.80 C710.75,525.12 710.03,524.34 710.54,518.44 C710.69,516.82 710.85,514.94 710.90,514.25 C710.97,513.41 712.83,513.00 716.55,513.00 L 722.10 513.00 ZM 561.75 545.43 C562.52,546.21 570.45,545.46 572.08,544.45 C572.59,544.14 573.00,541.60 573.00,538.80 L 573.00 533.72 L 567.98 534.32 C565.21,534.64 562.51,535.18 561.98,535.51 C560.83,536.22 560.65,544.31 561.75,545.43 ZM 540.46 546.75 C540.91,547.93 542.04,548.13 545.60,547.64 C548.11,547.30 550.52,546.80 550.95,546.53 C551.38,546.27 551.68,543.90 551.61,541.28 L 551.50 536.50 L 540.50 536.50 L 540.19 540.86 C540.01,543.26 540.14,545.91 540.46,546.75 ZM 561.70 459.36 C562.70,460.37 571.36,458.93 572.26,457.61 C572.68,457.00 572.90,454.70 572.76,452.50 C572.47,448.04 570.82,447.25 564.37,448.46 C561.10,449.07 561.00,449.23 561.00,453.88 C561.00,456.51 561.31,458.98 561.70,459.36 ZM 518.67 460.33 C519.03,460.70 521.50,461.00 524.15,461.00 C528.38,461.00 529.03,460.71 529.56,458.62 C529.89,457.31 530.01,454.95 529.83,453.37 C529.51,450.62 529.26,450.49 523.75,450.20 L 518.00 449.90 L 518.00 454.78 C518.00,457.47 518.30,459.97 518.67,460.33 ZM 702.00 409.00 L 702.00 420.00 L 691.00 420.00 L 691.00 409.00 ZM 279.84 471.75 C277.76,477.25 275.48,478.49 272.99,475.49 C271.97,474.26 272.23,472.65 274.41,466.74 C275.94,462.61 278.07,458.78 279.38,457.83 C281.62,456.19 281.67,456.21 281.50,458.98 C281.38,460.99 281.72,461.66 282.69,461.29 C283.78,460.87 283.83,461.32 282.93,463.64 C282.32,465.21 280.93,468.86 279.84,471.75 ZM 601.60 537.41 C602.04,538.55 602.94,538.80 604.85,538.33 C612.80,536.36 612.48,536.61 612.81,532.05 C612.99,529.67 612.71,527.31 612.19,526.79 C611.06,525.66 602.84,527.67 601.77,529.35 C600.87,530.75 600.78,535.26 601.60,537.41 ZM 581.75 456.43 C582.80,457.50 589.77,456.43 591.59,454.93 C592.60,454.09 593.00,452.31 592.80,449.59 L 592.50 445.50 L 588.17 445.70 C585.78,445.81 583.19,446.42 582.42,447.07 C580.94,448.30 580.45,455.11 581.75,456.43 ZM 726.10 495.00 L 725.50 505.50 L 720.25 505.64 L 715.00 505.79 L 715.00 495.00 ZM 540.71 460.38 C541.10,460.77 543.47,460.96 545.96,460.80 L 550.50 460.50 L 551.10 450.00 L 540.00 450.00 L 540.00 454.83 C540.00,457.49 540.32,459.99 540.71,460.38 ZM 621.65 533.32 C622.31,533.97 625.68,533.38 629.75,531.88 C631.68,531.17 632.00,530.33 632.00,525.91 L 632.00 520.78 L 628.27 521.48 C622.00,522.65 621.00,523.60 621.00,528.37 C621.00,530.73 621.29,532.96 621.65,533.32 ZM 582.70 542.37 C583.09,542.75 584.78,542.80 586.45,542.46 C590.03,541.75 591.65,541.43 592.39,540.45 C593.00,539.63 593.00,538.35 593.00,536.01 L 593.00 535.93 C593.00,530.52 592.37,530.18 585.12,531.62 C582.16,532.22 582.00,532.48 582.00,536.96 C582.00,539.55 582.32,541.98 582.70,542.37 ZM 601.70 453.37 C602.49,454.15 607.57,453.25 610.25,451.85 C611.95,450.95 612.22,450.16 612.22,446.00 C612.22,444.90 612.17,443.55 612.11,443.00 C611.97,441.72 606.90,441.71 603.57,442.98 C601.35,443.82 601.00,444.55 601.00,448.31 C601.00,450.71 601.32,452.98 601.70,453.37 ZM 659.25 443.34 C661.42,444.21 665.06,444.04 667.07,442.96 C668.53,442.18 669.00,440.86 669.00,437.46 L 669.00 433.00 L 665.08 433.00 C658.87,433.00 658.00,433.68 658.00,438.52 C658.00,441.04 658.52,443.04 659.25,443.34 ZM 621.62 449.28 C622.35,450.01 627.75,449.10 630.25,447.82 C631.53,447.17 632.00,445.70 632.00,442.35 L 632.00 437.77 L 627.25 438.48 C624.64,438.87 622.16,439.40 621.75,439.66 C620.85,440.21 620.74,448.40 621.62,449.28 ZM 658.67 524.33 C659.49,525.16 663.74,525.18 666.75,524.37 C668.70,523.85 669.00,523.11 669.00,518.75 L 669.00 513.73 L 664.42 514.36 C661.90,514.70 659.42,515.24 658.92,515.55 C657.87,516.20 657.66,523.33 658.67,524.33 ZM 640.68 528.34 C641.05,528.72 642.06,528.83 642.93,528.59 C650.76,526.44 650.96,526.24 650.98,520.61 L 651.00 516.73 L 646.42 517.36 C643.90,517.70 641.42,518.24 640.92,518.55 C639.86,519.20 639.66,527.33 640.68,528.34 ZM 639.61 444.42 C640.23,446.05 643.71,446.45 647.75,445.37 C649.69,444.85 650.00,444.10 650.00,439.88 C650.00,435.15 649.91,435.00 647.07,435.00 C641.70,435.00 639.00,436.64 639.00,439.89 C639.00,441.51 639.27,443.55 639.61,444.42 ZM 677.67 522.33 C678.03,522.70 680.04,523.00 682.13,523.00 C686.42,523.00 688.00,521.13 688.00,516.07 C688.00,513.02 687.97,513.00 682.50,513.00 L 677.00 513.00 L 677.00 517.33 C677.00,519.72 677.30,521.97 677.67,522.33 ZM 294.45 484.26 C293.59,489.02 292.84,489.45 289.71,486.99 C287.23,485.04 287.21,484.89 288.53,479.90 C289.27,477.09 290.13,474.54 290.44,474.23 C290.75,473.92 292.74,473.62 294.86,473.57 L 298.72 473.47 L 296.92 476.99 C295.94,478.92 294.82,482.19 294.45,484.26 ZM 677.71 442.38 C678.11,442.77 680.24,442.96 682.46,442.80 L 686.50 442.50 L 686.50 437.50 C686.50,433.01 686.26,432.47 684.15,432.17 C682.85,431.98 680.72,432.11 679.40,432.44 C677.33,432.96 677.00,433.63 677.00,437.35 C677.00,439.73 677.32,441.99 677.71,442.38 ZM 290.78 455.39 C284.54,456.64 281.00,455.78 281.00,453.00 C281.00,451.63 282.66,450.61 287.56,448.98 C291.17,447.78 294.35,447.02 294.63,447.30 C294.90,447.57 294.83,449.37 294.47,451.29 C293.93,454.17 293.28,454.89 290.78,455.39 ZM 741.00 442.00 L 741.00 451.00 L 732.00 451.00 L 732.00 442.00 ZM 698.00 460.00 L 698.00 469.00 L 689.00 469.00 L 689.00 460.00 ZM 461.79 466.15 C459.53,467.59 456.37,467.06 454.44,464.93 C452.73,463.04 452.70,462.63 454.06,460.18 C456.98,454.97 464.58,457.02 463.54,462.75 C463.28,464.17 462.49,465.71 461.79,466.15 ZM 378.17 442.35 C377.10,443.32 376.55,443.82 375.96,443.87 C375.33,443.92 374.66,443.45 373.27,442.48 L 373.22 442.44 C369.33,439.71 370.87,434.00 375.50,434.00 C379.92,434.00 381.60,439.24 378.17,442.35 ZM 307.20 455.43 C309.08,456.74 309.71,456.77 311.45,455.62 C315.48,452.96 314.18,447.00 309.58,447.00 C304.89,447.00 303.29,452.69 307.20,455.43 ZM 738.81 464.25 C738.56,466.93 738.03,467.55 735.84,467.81 C732.84,468.15 731.96,467.27 732.48,464.44 C732.68,463.37 732.88,462.16 732.92,461.75 C732.97,461.34 734.38,461.00 736.06,461.00 C738.92,461.00 739.11,461.22 738.81,464.25 ZM 700.82 539.75 C700.58,541.85 699.90,542.57 697.96,542.80 C694.88,543.16 694.00,542.39 694.00,539.33 C694.00,537.33 694.50,537.00 697.57,537.00 C700.87,537.00 701.11,537.20 700.82,539.75 ZM 735.00 520.00 C735.00,522.78 734.73,523.00 731.39,523.00 C728.51,523.00 727.91,522.68 728.39,521.42 C728.73,520.55 729.00,519.20 729.00,518.42 C729.00,517.51 730.08,517.00 732.00,517.00 C734.67,517.00 735.00,517.33 735.00,520.00 ZM 758.00 504.00 C758.00,506.67 757.67,507.00 755.00,507.00 C752.33,507.00 752.00,506.67 752.00,504.00 C752.00,501.33 752.33,501.00 755.00,501.00 C757.67,501.00 758.00,501.33 758.00,504.00 ZM 303.95 468.09 C303.40,469.11 301.95,470.49 300.73,471.14 C298.67,472.24 298.61,472.19 299.95,470.57 C301.24,469.01 301.20,468.86 299.56,469.16 C298.32,469.39 297.62,468.80 297.38,467.30 C296.91,464.34 298.51,463.56 302.04,465.01 C304.46,466.02 304.78,466.53 303.95,468.09 ZM 755.82 480.75 C755.57,482.91 754.91,483.57 752.75,483.82 C750.28,484.10 750.00,483.82 750.00,481.07 C750.00,478.31 750.31,478.00 753.07,478.00 C755.82,478.00 756.10,478.28 755.82,480.75 ZM 754.00 446.79 C754.00,449.90 752.75,450.91 749.75,450.24 C747.61,449.77 747.31,445.00 749.42,445.00 C750.20,445.00 751.55,444.73 752.42,444.39 C753.64,443.92 754.00,444.46 754.00,446.79 ZM 703.27 496.15 C703.69,497.32 703.17,497.93 701.45,498.25 C698.45,498.83 698.00,498.38 698.00,494.83 C698.00,490.45 701.57,491.34 703.27,496.15 ZM 713.57 416.57 C711.31,418.83 710.00,418.25 710.00,415.00 C710.00,412.47 710.39,412.00 712.50,412.00 C715.33,412.00 715.86,414.28 713.57,416.57 ZM 434.00 403.94 C434.00,404.52 434.45,405.00 435.00,405.00 C435.55,405.00 436.00,404.80 436.00,404.56 C436.00,404.32 435.55,403.84 435.00,403.50 C434.45,403.16 434.00,403.36 434.00,403.94 Z" fill="rgb(48,62,74)"/>
<path d="M 425.66 402.49 C422.55,400.22 424.37,395.98 428.45,396.02 C429.73,396.02 430.74,396.25 431.51,396.73 C430.29,396.14 428.66,396.11 427.04,396.98 C424.40,398.39 424.43,401.49 427.11,403.37 C429.54,405.07 431.63,404.57 433.02,401.95 C433.22,401.59 433.36,401.24 433.45,400.89 C433.46,401.12 433.47,401.36 433.47,401.61 C433.52,407.31 437.41,407.19 438.56,401.46 C438.30,403.27 437.38,405.03 435.81,406.70 C434.22,408.40 432.54,409.00 429.41,409.00 C427.03,409.00 425.72,408.75 424.46,407.79 L 425.78 405.91 C427.18,403.91 427.17,403.59 425.66,402.49 ZM 296.09 478.86 C296.36,478.17 296.65,477.52 296.92,476.99 L 298.72 473.47 L 294.86 473.57 C292.83,473.62 290.91,473.90 290.48,474.19 C291.56,471.78 292.92,469.58 294.54,467.65 C296.67,465.09 298.54,463.00 298.69,463.00 C298.83,463.00 300.33,463.84 302.02,464.87 L 302.86 465.38 C302.62,465.26 302.34,465.14 302.04,465.01 C298.51,463.56 296.91,464.34 297.38,467.30 C297.62,468.80 298.32,469.39 299.56,469.16 C301.20,468.86 301.24,469.01 299.95,470.57 C298.61,472.19 298.67,472.24 300.73,471.14 C301.21,470.88 301.74,470.51 302.23,470.09 L 300.58 472.01 C298.46,474.50 297.05,476.61 296.09,478.86 ZM 290.78 455.39 C290.90,455.37 291.02,455.35 291.13,455.32 C290.71,455.46 290.22,455.60 289.67,455.75 C286.07,456.71 285.56,456.89 282.99,463.48 C283.82,461.30 283.75,460.88 282.69,461.29 C281.72,461.66 281.38,460.99 281.50,458.98 C281.67,456.21 281.62,456.19 279.38,457.83 C278.07,458.78 275.94,462.61 274.41,466.74 C274.36,466.88 274.31,467.01 274.26,467.15 C274.68,465.90 275.17,464.47 275.76,462.81 L 279.74 451.59 L 286.93 449.19 C282.58,450.66 281.00,451.66 281.00,453.00 C281.00,455.78 284.54,456.64 290.78,455.39 ZM 444.90 392.42 C446.55,392.38 448.24,391.94 449.82,391.10 C451.63,390.13 452.44,390.12 453.59,391.07 C454.39,391.74 454.82,392.51 454.55,392.79 C454.27,393.06 453.44,392.78 452.69,392.16 C451.62,391.27 451.37,391.49 451.50,393.27 C451.61,394.86 454.37,397.58 456.87,399.03 C455.08,398.22 452.65,396.71 449.26,394.40 C447.75,393.38 446.12,392.65 444.90,392.42 ZM 428.10 391.14 C425.82,391.16 424.71,391.67 423.48,393.03 C422.27,394.36 422.06,395.03 422.90,394.82 C423.64,394.65 424.48,395.13 424.75,395.89 C425.06,396.72 424.82,397.01 424.16,396.60 C423.50,396.19 422.78,397.03 422.37,398.67 C421.74,401.16 421.60,401.23 420.91,399.46 C420.25,397.78 420.14,397.84 420.07,399.99 C419.92,397.75 420.59,395.52 422.11,393.59 C423.80,391.44 424.63,391.01 428.10,391.14 ZM 713.57 416.57 C715.82,414.32 715.35,412.08 712.65,412.00 C712.76,412.00 712.88,412.00 713.00,412.00 C715.67,412.00 716.00,412.33 716.00,415.00 C716.00,417.67 715.67,418.00 713.00,418.00 C712.38,418.00 711.88,417.98 711.48,417.92 C712.04,417.85 712.74,417.40 713.57,416.57 ZM 703.27 496.15 C702.41,493.71 701.07,492.28 699.95,492.03 C700.25,492.01 700.60,492.00 701.00,492.00 C703.64,492.00 704.00,492.35 704.00,494.88 C704.00,497.16 703.48,497.87 701.52,498.24 C703.19,497.91 703.69,497.31 703.27,496.15 ZM 459.94 393.08 C459.24,392.69 458.39,392.29 457.37,391.84 C454.97,390.78 453.00,389.55 453.00,389.11 C453.00,388.97 452.82,388.75 452.50,388.50 C452.84,388.69 453.19,388.90 453.56,389.12 C456.47,390.85 458.53,392.10 459.94,393.08 ZM 434.00 403.94 C434.00,403.36 434.45,403.16 435.00,403.50 C435.55,403.84 436.00,404.32 436.00,404.56 C436.00,404.80 435.55,405.00 435.00,405.00 C434.45,405.00 434.00,404.52 434.00,403.94 ZM 288.28 480.84 C287.23,484.91 287.40,485.17 289.69,486.97 L 287.14 484.96 ZM 436.07 388.19 L 438.76 390.38 C440.18,391.53 441.89,392.20 443.69,392.37 C443.66,392.38 443.64,392.38 443.61,392.39 C442.44,392.70 440.55,391.96 438.87,390.54 L 436.07 388.19 ZM 303.95 466.04 L 305.09 466.73 L 303.99 468.02 C304.47,467.11 304.53,466.56 303.95,466.04 ZM 448.98 386.49 C445.23,384.80 444.80,384.80 440.53,386.43 L 438.84 387.08 L 440.06 386.59 C444.17,384.95 445.29,384.57 448.98,386.49 ZM 276.33 476.92 C275.26,477.54 274.24,476.99 273.01,475.52 C274.16,476.89 275.27,477.36 276.33,476.92 ZM 294.45 484.26 C294.61,483.37 294.91,482.26 295.27,481.13 C295.12,481.63 294.99,482.15 294.87,482.69 C294.71,483.42 294.53,484.14 294.35,484.80 C294.38,484.63 294.42,484.45 294.45,484.26 ZM 698.80 492.29 C698.31,492.70 698.00,493.53 698.00,494.83 C698.00,493.35 698.13,492.63 698.80,492.29 ZM 293.27 488.03 C293.15,488.30 293.04,488.48 292.95,488.53 C292.79,488.63 292.47,488.58 292.06,488.41 C292.56,488.54 292.95,488.43 293.27,488.03 ZM 710.57 417.56 C710.09,417.16 710.00,416.40 710.00,415.00 C710.00,416.26 710.20,417.11 710.57,417.56 ZM 462.06 397.88 C462.05,397.90 462.05,397.91 462.04,397.93 C462.42,397.21 462.63,396.60 462.63,396.05 C462.68,396.60 462.45,397.17 462.06,397.88 ZM 433.87 391.97 C434.87,392.45 435.58,393.24 436.54,394.63 C435.59,393.26 434.85,392.46 433.87,391.97 ZM 710.54 412.46 C710.11,412.88 710.00,413.65 710.00,415.00 C710.00,413.63 710.09,412.87 710.54,412.46 ZM 461.21 399.08 C461.42,398.86 461.62,398.61 461.79,398.35 C461.61,398.63 461.42,398.88 461.21,399.08 Z" fill="rgb(71,79,87)"/>
<path d="M 0.00 512.00 L 0.00 0.00 L 512.00 0.00 L 1024.00 0.00 L 1024.00 512.00 L 1024.00 1024.00 L 512.00 1024.00 L 0.00 1024.00 L 0.00 512.00 ZM 539.76 628.25 L 540.01 561.00 L 526.26 560.98 C518.69,560.98 512.04,560.64 511.49,560.23 C510.93,559.83 510.42,558.26 510.34,556.75 L 510.21 554.00 L 521.36 553.96 C538.21,553.91 563.24,552.31 575.00,550.55 C585.69,548.94 593.43,547.13 628.00,538.16 C653.22,531.62 667.00,529.05 681.65,528.20 L 693.50 527.50 L 693.78 517.25 L 694.07 507.00 L 687.78 507.02 C684.33,507.03 677.26,507.48 672.09,508.03 C658.10,509.50 659.00,511.49 659.00,479.00 C659.00,454.03 659.12,452.20 660.90,450.59 C662.48,449.16 665.39,448.80 678.15,448.49 L 693.50 448.10 L 693.79 437.39 L 694.07 426.68 L 674.79 427.33 C654.87,428.00 644.93,429.28 611.00,435.50 C573.43,442.40 566.51,443.17 537.25,443.72 L 510.00 444.23 L 510.00 440.61 L 510.00 437.00 L 525.00 437.00 L 540.00 437.00 L 540.00 396.00 L 540.00 355.00 L 595.00 355.00 L 650.00 355.00 L 650.00 331.53 L 650.00 308.06 L 511.25 308.56 L 372.50 309.06 L 372.23 332.03 L 371.96 355.00 L 426.47 355.00 L 480.98 355.00 L 481.24 403.25 L 481.50 451.50 L 491.52 451.15 C504.38,450.70 505.89,451.66 506.71,460.77 L 507.28 467.00 L 527.89 466.89 C539.22,466.84 553.22,466.48 559.00,466.10 C571.51,465.29 572.43,465.45 573.88,468.63 C575.35,471.87 575.41,519.51 573.95,523.71 C573.37,525.37 571.73,527.26 570.31,527.90 C566.64,529.58 543.01,531.14 526.50,530.79 L 512.50 530.50 L 512.18 527.75 L 511.87 525.00 L 533.23 525.00 C555.73,525.00 557.00,524.76 557.00,520.42 C557.00,515.96 555.30,515.65 534.22,516.36 C523.37,516.72 513.90,516.63 513.16,516.15 C512.43,515.67 511.98,514.20 512.16,512.89 C512.50,510.52 512.61,510.50 526.25,510.22 L 540.00 509.94 L 540.00 505.97 L 540.00 502.00 L 512.00 502.00 C492.04,502.00 484.00,502.32 484.00,503.12 C484.00,503.73 485.83,506.06 488.06,508.30 C503.28,523.52 502.57,548.14 486.48,562.85 L 481.00 567.85 L 481.00 631.94 L 481.00 696.03 L 510.25 695.77 L 539.50 695.50 L 539.76 628.25 ZM 472.00 564.04 C478.60,562.11 485.20,556.10 488.97,548.58 C491.97,542.62 492.44,540.68 492.43,534.58 C492.40,522.43 485.60,511.46 475.09,506.64 C468.68,503.70 456.34,503.69 449.95,506.62 C430.41,515.60 425.59,541.99 440.87,556.29 C450.50,565.29 459.82,567.61 472.00,564.04 ZM 700.82 539.75 C701.11,537.20 700.87,537.00 697.57,537.00 C694.50,537.00 694.00,537.33 694.00,539.33 C694.00,542.39 694.88,543.16 697.96,542.80 C699.90,542.57 700.58,541.85 700.82,539.75 ZM 427.01 523.50 C431.07,510.57 442.33,500.41 454.81,498.41 C457.14,498.04 459.26,497.39 459.53,496.96 C459.79,496.53 454.94,491.99 448.75,486.88 C442.56,481.76 429.50,470.90 419.73,462.75 C401.83,447.81 399.00,445.80 399.00,447.98 C399.00,450.00 393.18,457.38 389.75,459.71 C387.96,460.92 384.17,462.51 381.33,463.24 L 376.16 464.56 L 385.77 477.53 C417.25,520.01 424.27,529.12 424.98,528.35 C425.41,527.88 426.32,525.70 427.01,523.50 ZM 721.80 518.75 L 722.10 513.00 L 716.55 513.00 C712.83,513.00 710.97,513.41 710.90,514.25 C710.85,514.94 710.69,516.82 710.54,518.44 C710.03,524.34 710.75,525.12 716.38,524.80 L 721.50 524.50 L 721.80 518.75 ZM 735.00 520.00 C735.00,517.33 734.67,517.00 732.00,517.00 C730.08,517.00 729.00,517.51 729.00,518.42 C729.00,519.20 728.73,520.55 728.39,521.42 C727.91,522.68 728.51,523.00 731.39,523.00 C734.73,523.00 735.00,522.78 735.00,520.00 ZM 758.00 504.00 C758.00,501.33 757.67,501.00 755.00,501.00 C752.33,501.00 752.00,501.33 752.00,504.00 C752.00,506.67 752.33,507.00 755.00,507.00 C757.67,507.00 758.00,506.67 758.00,504.00 ZM 725.80 500.25 L 726.10 495.00 L 720.55 495.00 L 715.00 495.00 L 715.00 500.39 L 715.00 505.79 L 720.25 505.64 L 725.50 505.50 L 725.80 500.25 ZM 745.16 500.00 L 745.50 494.00 L 739.75 494.00 L 734.00 494.00 L 734.00 500.00 L 734.00 506.00 L 739.41 506.00 L 744.82 506.00 L 745.16 500.00 ZM 704.00 494.88 C704.00,492.35 703.64,492.00 701.00,492.00 C698.37,492.00 698.00,492.35 698.00,494.83 C698.00,498.39 698.45,498.83 701.52,498.24 C703.48,497.87 704.00,497.16 704.00,494.88 ZM 518.39 494.70 C519.58,493.84 520.06,492.41 519.84,490.45 L 519.50 487.50 L 496.00 487.23 C474.79,486.99 472.38,487.13 471.25,488.67 C469.59,490.95 469.67,492.53 471.57,494.43 C472.90,495.76 476.45,496.00 494.88,496.00 C511.13,496.00 517.07,495.67 518.39,494.70 ZM 555.17 494.35 C556.18,493.43 557.00,491.95 557.00,491.05 C557.00,487.57 554.88,487.00 542.00,487.00 C528.67,487.00 527.00,487.52 527.00,491.65 C527.00,495.17 529.65,495.94 541.92,495.97 C551.18,495.99 553.69,495.69 555.17,494.35 ZM 294.87 482.69 C295.75,478.78 297.32,475.83 300.58,472.01 L 305.09 466.73 L 302.02 464.87 C300.33,463.84 298.83,463.00 298.69,463.00 C298.54,463.00 296.67,465.09 294.54,467.65 C291.97,470.72 290.05,474.46 288.89,478.63 L 287.14 484.96 L 289.69 486.97 C291.09,488.07 292.56,488.77 292.95,488.53 C293.34,488.29 294.21,485.66 294.87,482.69 ZM 718.00 481.00 L 718.00 475.00 L 712.50 475.00 L 707.00 475.00 L 707.00 480.33 C707.00,483.27 707.30,485.97 707.67,486.33 C708.03,486.70 710.51,487.00 713.17,487.00 L 718.00 487.00 L 718.00 481.00 ZM 741.80 480.75 L 742.10 475.00 L 736.05 475.00 L 730.00 475.00 L 730.00 480.33 C730.00,483.27 730.32,485.99 730.71,486.38 C731.10,486.77 733.69,486.96 736.46,486.79 L 741.50 486.50 L 741.80 480.75 ZM 755.82 480.75 C756.10,478.28 755.82,478.00 753.07,478.00 C750.31,478.00 750.00,478.31 750.00,481.07 C750.00,483.82 750.28,484.10 752.75,483.82 C754.91,483.57 755.57,482.91 755.82,480.75 ZM 539.81 476.75 L 540.12 473.00 L 510.56 473.00 L 481.00 473.00 L 481.00 477.02 L 481.00 481.03 L 510.25 480.77 L 539.50 480.50 L 539.81 476.75 ZM 281.67 466.93 C285.48,456.92 285.52,456.86 289.67,455.75 C293.32,454.77 293.93,454.19 294.49,451.21 C294.84,449.33 294.90,447.57 294.63,447.29 C294.35,447.02 290.89,447.87 286.93,449.19 L 279.74 451.59 L 275.76 462.81 C272.54,471.91 272.02,474.31 273.01,475.52 C275.94,479.05 277.72,477.28 281.67,466.93 ZM 698.00 464.50 L 698.00 460.00 L 693.50 460.00 L 689.00 460.00 L 689.00 464.50 L 689.00 469.00 L 693.50 469.00 L 698.00 469.00 L 698.00 464.50 ZM 725.00 462.50 L 725.00 457.00 L 719.00 457.00 L 713.00 457.00 L 713.00 461.83 C713.00,464.49 713.30,466.97 713.67,467.33 C714.03,467.70 716.73,468.00 719.67,468.00 L 725.00 468.00 L 725.00 462.50 ZM 738.81 464.25 C739.11,461.22 738.92,461.00 736.06,461.00 C734.38,461.00 732.97,461.34 732.92,461.75 C732.88,462.16 732.68,463.37 732.48,464.44 C731.96,467.27 732.84,468.15 735.84,467.81 C738.03,467.55 738.56,466.93 738.81,464.25 ZM 461.79 466.15 C462.49,465.71 463.28,464.17 463.54,462.75 C464.58,457.02 456.98,454.97 454.06,460.18 C452.70,462.63 452.73,463.04 454.44,464.93 C456.37,467.06 459.53,467.59 461.79,466.15 ZM 498.43 465.43 C500.10,463.75 500.37,462.13 499.39,459.58 C498.88,458.25 496.74,458.00 486.09,458.00 C473.05,458.00 471.00,458.56 471.00,462.13 C471.00,466.13 473.59,467.00 485.50,467.00 C494.49,467.00 497.18,466.67 498.43,465.43 ZM 313.47 461.58 C319.95,458.87 321.95,450.48 317.41,445.08 C315.12,442.35 314.22,442.00 309.50,442.00 C304.78,442.00 303.88,442.35 301.59,445.08 C296.86,450.70 298.68,458.65 305.38,461.56 C309.33,463.28 309.39,463.28 313.47,461.58 ZM 381.78 457.45 C393.35,452.62 397.91,440.80 392.61,429.40 C389.04,421.75 385.26,419.50 375.93,419.50 C369.57,419.50 367.80,419.89 364.84,421.91 C359.52,425.55 356.72,430.30 356.20,436.59 C354.94,451.82 368.59,462.95 381.78,457.45 ZM 338.04 450.49 C344.81,449.11 350.57,447.77 350.83,447.50 C351.10,447.23 351.22,443.96 351.10,440.23 C350.98,436.50 351.35,432.20 351.93,430.69 C353.43,426.75 351.67,426.46 343.95,429.37 C337.93,431.65 320.87,438.93 320.20,439.51 C320.03,439.66 320.81,441.29 321.94,443.14 C323.07,444.99 323.99,447.66 324.00,449.08 C324.00,451.24 324.69,453.00 325.53,453.00 C325.64,453.00 331.27,451.87 338.04,450.49 ZM 711.80 446.75 L 712.10 441.00 L 705.92 441.00 L 699.75 441.00 L 700.38 444.12 C700.72,445.84 701.00,448.57 701.00,450.18 C701.00,453.08 701.04,453.10 706.25,452.80 L 711.50 452.50 L 711.80 446.75 ZM 741.00 446.50 L 741.00 442.00 L 736.50 442.00 L 732.00 442.00 L 732.00 446.50 L 732.00 451.00 L 736.50 451.00 L 741.00 451.00 L 741.00 446.50 ZM 754.00 446.79 C754.00,444.46 753.64,443.92 752.42,444.39 C751.55,444.73 750.20,445.00 749.42,445.00 C747.31,445.00 747.61,449.77 749.75,450.24 C752.75,450.91 754.00,449.90 754.00,446.79 ZM 730.80 429.75 L 731.10 424.00 L 725.05 424.00 L 719.00 424.00 L 719.00 429.33 C719.00,432.27 719.32,434.99 719.71,435.38 C720.10,435.77 722.69,435.96 725.46,435.79 L 730.50 435.50 L 730.80 429.75 ZM 408.07 420.88 C412.71,417.51 417.52,413.83 418.76,412.70 C420.97,410.67 420.98,410.61 419.12,408.57 C417.25,406.52 415.42,402.20 415.80,400.75 C416.09,399.65 415.34,399.81 410.70,401.82 C408.39,402.83 401.22,405.86 394.77,408.57 C388.32,411.28 383.04,413.73 383.04,414.00 C383.05,414.27 384.85,415.33 387.06,416.35 C389.26,417.36 392.72,420.18 394.74,422.60 C396.77,425.02 398.70,427.00 399.03,427.00 C399.37,427.00 403.44,424.24 408.07,420.88 ZM 459.33 420.01 C459.78,419.59 458.98,416.93 457.55,414.10 C455.30,409.66 454.16,408.60 449.35,406.47 C442.49,403.44 442.59,403.44 440.63,406.44 C439.05,408.86 439.07,408.89 444.52,411.47 C447.53,412.89 450.00,414.38 450.00,414.78 C450.01,415.18 450.92,416.99 452.03,418.81 C453.66,421.48 454.47,421.99 456.27,421.45 C457.50,421.08 458.87,420.43 459.33,420.01 ZM 702.00 414.50 L 702.00 409.00 L 696.50 409.00 L 691.00 409.00 L 691.00 414.50 L 691.00 420.00 L 696.50 420.00 L 702.00 420.00 L 702.00 414.50 ZM 716.00 415.00 C716.00,412.33 715.67,412.00 713.00,412.00 C710.33,412.00 710.00,412.33 710.00,415.00 C710.00,417.67 710.33,418.00 713.00,418.00 C715.67,418.00 716.00,417.67 716.00,415.00 ZM 435.81 406.70 C439.21,403.09 439.54,399.09 436.79,395.00 C434.68,391.86 433.90,391.47 429.33,391.20 C424.80,390.94 423.98,391.21 422.11,393.59 C419.20,397.29 419.39,402.12 422.59,405.92 C424.73,408.47 425.91,409.00 429.41,409.00 C432.54,409.00 434.22,408.40 435.81,406.70 ZM 462.06 397.88 C463.47,395.26 462.89,394.67 453.56,389.12 C445.71,384.45 445.50,384.41 440.06,386.59 L 436.07 388.19 L 438.87 390.54 C440.55,391.96 442.44,392.70 443.61,392.39 C444.73,392.10 447.11,392.95 449.26,394.40 C458.14,400.43 460.38,401.04 462.06,397.88 ZM 518.71 547.38 C518.32,546.99 518.00,544.27 518.00,541.33 L 518.00 536.00 L 522.75 536.02 C529.37,536.04 530.18,536.79 529.81,542.60 L 529.50 547.50 L 524.46 547.79 C521.69,547.96 519.10,547.77 518.71,547.38 ZM 540.46 546.75 C540.14,545.91 540.01,543.26 540.19,540.86 L 540.50 536.50 L 546.00 536.50 L 551.50 536.50 L 551.61 541.28 C551.68,543.90 551.38,546.27 550.95,546.53 C550.52,546.80 548.11,547.30 545.60,547.64 C542.04,548.13 540.91,547.93 540.46,546.75 ZM 561.75 545.43 C560.65,544.31 560.83,536.22 561.98,535.51 C562.51,535.18 565.21,534.64 567.98,534.32 L 573.00 533.72 L 573.00 538.80 C573.00,541.60 572.59,544.14 572.08,544.45 C570.45,545.46 562.52,546.21 561.75,545.43 ZM 582.70 542.37 C582.32,541.98 582.00,539.55 582.00,536.96 C582.00,532.48 582.16,532.22 585.12,531.62 C592.37,530.18 593.00,530.52 593.00,535.93 C593.00,541.18 593.03,541.14 586.45,542.46 C584.78,542.80 583.09,542.75 582.70,542.37 ZM 601.60 537.41 C600.78,535.26 600.87,530.75 601.77,529.35 C602.84,527.67 611.06,525.66 612.19,526.79 C612.71,527.31 612.99,529.67 612.81,532.05 C612.48,536.61 612.80,536.36 604.85,538.33 C602.94,538.80 602.04,538.55 601.60,537.41 ZM 621.65 533.32 C621.29,532.96 621.00,530.73 621.00,528.37 C621.00,523.60 622.00,522.65 628.27,521.48 L 632.00 520.78 L 632.00 525.91 C632.00,530.33 631.68,531.17 629.75,531.88 C625.68,533.38 622.31,533.97 621.65,533.32 ZM 640.68 528.34 C639.66,527.33 639.86,519.20 640.92,518.55 C641.42,518.24 643.90,517.70 646.42,517.36 L 651.00 516.73 L 650.98 520.61 C650.96,526.24 650.76,526.44 642.93,528.59 C642.06,528.83 641.05,528.72 640.68,528.34 ZM 583.48 522.60 C582.13,520.55 581.95,516.39 582.20,493.14 C582.46,469.34 582.70,465.86 584.18,464.39 C586.02,462.55 642.49,450.70 646.98,451.22 C651.48,451.73 651.97,454.55 651.99,480.28 C652.00,511.90 652.44,510.96 636.50,514.02 C633.20,514.65 621.68,517.38 610.90,520.09 C588.29,525.76 585.70,525.99 583.48,522.60 ZM 658.67 524.33 C657.66,523.33 657.87,516.20 658.92,515.55 C659.42,515.24 661.90,514.70 664.42,514.36 L 669.00 513.73 L 669.00 518.75 C669.00,523.11 668.70,523.85 666.75,524.37 C663.74,525.18 659.49,525.16 658.67,524.33 ZM 677.67 522.33 C677.30,521.97 677.00,519.72 677.00,517.33 L 677.00 513.00 L 682.50 513.00 C687.97,513.00 688.00,513.02 688.00,516.07 C688.00,521.13 686.42,523.00 682.13,523.00 C680.04,523.00 678.03,522.70 677.67,522.33 ZM 518.67 460.33 C518.30,459.97 518.00,457.47 518.00,454.78 L 518.00 449.90 L 523.75 450.20 C529.26,450.49 529.51,450.62 529.83,453.37 C530.01,454.95 529.89,457.31 529.56,458.62 C529.03,460.71 528.38,461.00 524.15,461.00 C521.50,461.00 519.03,460.70 518.67,460.33 ZM 540.71 460.38 C540.32,459.99 540.00,457.49 540.00,454.83 L 540.00 450.00 L 545.55 450.00 L 551.10 450.00 L 550.80 455.25 L 550.50 460.50 L 545.96 460.80 C543.47,460.96 541.10,460.77 540.71,460.38 ZM 561.70 459.36 C561.31,458.98 561.00,456.51 561.00,453.88 C561.00,449.23 561.10,449.07 564.37,448.46 C570.82,447.25 572.47,448.04 572.76,452.50 C572.90,454.70 572.68,457.00 572.26,457.61 C571.36,458.93 562.70,460.37 561.70,459.36 ZM 581.75 456.43 C580.45,455.11 580.94,448.30 582.42,447.07 C583.19,446.42 585.78,445.81 588.17,445.70 L 592.50 445.50 L 592.80 449.59 C593.00,452.31 592.60,454.09 591.59,454.93 C589.77,456.43 582.80,457.50 581.75,456.43 ZM 601.70 453.37 C601.32,452.98 601.00,450.71 601.00,448.31 C601.00,444.55 601.35,443.82 603.57,442.98 C606.90,441.71 611.97,441.72 612.11,443.00 C612.17,443.55 612.22,444.90 612.22,446.00 C612.22,450.16 611.95,450.95 610.25,451.85 C607.57,453.25 602.49,454.15 601.70,453.37 ZM 621.62 449.28 C620.74,448.40 620.85,440.21 621.75,439.66 C622.16,439.40 624.64,438.87 627.25,438.48 L 632.00 437.77 L 632.00 442.35 C632.00,445.70 631.53,447.17 630.25,447.82 C627.75,449.10 622.35,450.01 621.62,449.28 ZM 639.61 444.42 C639.27,443.55 639.00,441.51 639.00,439.89 C639.00,436.64 641.70,435.00 647.07,435.00 C649.91,435.00 650.00,435.15 650.00,439.88 C650.00,444.10 649.69,444.85 647.75,445.37 C643.71,446.45 640.23,446.05 639.61,444.42 ZM 659.25 443.34 C658.52,443.04 658.00,441.04 658.00,438.52 C658.00,433.68 658.87,433.00 665.08,433.00 L 669.00 433.00 L 669.00 437.46 C669.00,440.86 668.53,442.18 667.07,442.96 C665.06,444.04 661.42,444.21 659.25,443.34 ZM 677.71 442.38 C677.32,441.99 677.00,439.73 677.00,437.35 C677.00,433.63 677.33,432.96 679.40,432.44 C680.72,432.11 682.85,431.98 684.15,432.17 C686.26,432.47 686.50,433.01 686.50,437.50 L 686.50 442.50 L 682.46 442.80 C680.24,442.96 678.11,442.77 677.71,442.38 ZM 455.46 549.20 C445.75,543.09 443.30,532.55 449.79,524.84 C456.78,516.53 468.66,517.21 475.41,526.32 C478.33,530.26 478.34,539.72 475.44,543.61 C470.32,550.47 461.43,552.95 455.46,549.20 ZM 467.08 540.08 C470.53,536.62 470.75,534.22 467.93,530.63 C464.31,526.04 455.96,527.55 454.88,533.00 C454.28,536.04 456.10,539.99 458.76,541.43 C462.66,543.55 463.79,543.37 467.08,540.08 ZM 307.20 455.43 C303.29,452.69 304.89,447.00 309.58,447.00 C314.18,447.00 315.48,452.96 311.45,455.62 C309.71,456.77 309.08,456.74 307.20,455.43 ZM 371.38 448.56 C367.19,446.74 365.00,443.36 365.00,438.71 C365.00,433.83 366.31,431.41 369.98,429.51 C374.86,426.99 378.77,427.57 382.60,431.40 C388.18,436.98 386.98,444.89 379.99,448.51 C376.50,450.31 375.41,450.32 371.38,448.56 ZM 378.17 442.35 C381.60,439.24 379.92,434.00 375.50,434.00 C370.87,434.00 369.33,439.71 373.22,442.44 C375.97,444.37 375.94,444.37 378.17,442.35 ZM 427.11 403.37 C424.43,401.49 424.40,398.39 427.04,396.98 C431.06,394.83 435.06,398.15 433.02,401.95 C431.63,404.57 429.54,405.07 427.11,403.37 Z" fill="rgb(241,241,241)"/>
</g>
</svg>